<?xml version="1.0" standalone="no"?>
<!DOCTYPE svg PUBLIC "-//W3C//DTD SVG 20010904//EN"
 "http://www.w3.org/TR/2001/REC-SVG-20010904/DTD/svg10.dtd">
<svg version="1.0" xmlns="http://www.w3.org/2000/svg"
 width="512.000000pt" height="512.000000pt" viewBox="0 0 512.000000 512.000000"
 preserveAspectRatio="xMidYMid meet">
<metadata>
Created by potrace 1.11, written by Peter Selinger 2001-2013
</metadata>
<g transform="translate(0.000000,512.000000) scale(0.100000,-0.100000)"
fill="#000000" stroke="none">
<path d="M2690 2658 l0 -1878 1185 0 c967 0 1185 2 1178 13 -4 7 -44 70 -88
140 -44 70 -91 145 -105 168 -45 72 -1322 2092 -1365 2159 -23 36 -135 214
-250 395 -114 182 -226 359 -249 395 -56 86 -177 277 -248 393 l-58 92 0
-1877z"/>
<path d="M1252 4430 c-5 -14 -37 -110 -72 -215 -34 -104 -77 -235 -95 -290
-19 -55 -79 -242 -135 -415 -56 -173 -108 -331 -115 -350 -7 -19 -59 -177
-115 -350 -57 -173 -122 -373 -145 -445 -61 -184 -199 -609 -364 -1115 -78
-239 -144 -441 -146 -447 -4 -10 244 -13 1214 -13 l1219 0 -7 22 c-16 54 -414
1233 -497 1473 -19 55 -39 114 -43 130 -5 17 -93 278 -196 580 -210 620 -352
1039 -436 1290 -50 149 -58 167 -67 145z"/>
</g>
</svg>
